<svg width="40" height="41" viewBox="0 0 40 41" fill="none" xmlns="http://www.w3.org/2000/svg">
<g id="Notification important" clip-path="url(#clip0_34_76)">
<path id="Vector" opacity="0.3" d="M30 26.8667V18.5333C30 13.4167 27.2667 9.13334 22.5 8V6.86667C22.5 5.48334 21.3834 4.36667 20 4.36667C18.6167 4.36667 17.5 5.48334 17.5 6.86667V8C12.7167 9.13334 10 13.4 10 18.5333V26.8667L6.66669 30.2V31.8667H33.3334V30.2L30 26.8667ZM21.6667 26.8667H18.3334V23.5333H21.6667V26.8667ZM21.6667 20.2H18.3334V13.5333H21.6667V20.2ZM20 36.8667C21.8334 36.8667 23.3334 35.3667 23.3334 33.5333H16.6667C16.6667 35.3667 18.15 36.8667 20 36.8667Z" fill="black"/>
</g>
<defs>
<clipPath id="clip0_34_76">
<rect width="40" height="40" fill="white" transform="translate(0 0.200012)"/>
</clipPath>
</defs>
</svg>
