<svg width="40" height="41" viewBox="0 0 40 41" fill="none" xmlns="http://www.w3.org/2000/svg">
<g id="Search" clip-path="url(#clip0_34_68)">
<path id="Vector" opacity="0.3" d="M25.8333 23.7334H24.5167L24.05 23.2834C25.6833 21.3834 26.6667 18.9167 26.6667 16.2334C26.6667 10.25 21.8167 5.40002 15.8333 5.40002C9.85 5.40002 5 10.25 5 16.2334C5 22.2167 9.85 27.0667 15.8333 27.0667C18.5167 27.0667 20.9833 26.0834 22.8833 24.45L23.3333 24.9167V26.2334L31.6667 34.55L34.15 32.0667L25.8333 23.7334ZM15.8333 23.7334C11.6833 23.7334 8.33333 20.3834 8.33333 16.2334C8.33333 12.0834 11.6833 8.73336 15.8333 8.73336C19.9833 8.73336 23.3333 12.0834 23.3333 16.2334C23.3333 20.3834 19.9833 23.7334 15.8333 23.7334Z" fill="black"/>
</g>
<defs>
<clipPath id="clip0_34_68">
<rect width="40" height="40" fill="white" transform="translate(0 0.400024)"/>
</clipPath>
</defs>
</svg>
