<svg width="41" height="40" viewBox="0 0 41 40" fill="none" xmlns="http://www.w3.org/2000/svg">
<g id="Twitter">
<path id="Vector" d="M37.1666 6.66504C35.8666 7.43671 33.2583 8.48837 31.725 8.79171C31.68 8.80337 31.6433 8.81837 31.6 8.83004C30.245 7.49337 28.3883 6.66504 26.3333 6.66504C22.1916 6.66504 18.8333 10.0234 18.8333 14.165C18.8333 14.3834 18.815 14.785 18.8333 14.9984C13.245 14.9984 8.99165 12.0717 5.94165 8.33171C5.60998 9.16504 5.46498 10.4817 5.46498 11.7184C5.46498 14.0534 7.28998 16.3467 10.1316 17.7684C9.60831 17.9034 9.03165 18 8.43165 18C7.46331 18 6.43831 17.745 5.49998 16.9717C5.49998 17 5.49998 17.0267 5.49998 17.0567C5.49998 20.32 8.96331 22.5417 12.0433 23.16C11.4183 23.5284 10.1583 23.565 9.54331 23.565C9.10998 23.565 7.57665 23.3667 7.16665 23.29C8.02331 25.965 11.1133 27.4684 14.0583 27.5217C11.755 29.3284 10.1566 29.9984 5.43998 29.9984H3.83331C6.81331 31.9084 10.6083 33.3334 14.4116 33.3334C26.795 33.3334 33.8333 23.895 33.8333 14.9984C33.8333 14.855 33.83 14.555 33.825 14.2534C33.825 14.2234 33.8333 14.195 33.8333 14.165C33.8333 14.12 33.82 14.0767 33.82 14.0317C33.815 13.805 33.81 13.5934 33.805 13.4834C35.1216 12.5334 36.2633 11.3484 37.1666 9.99837C35.9583 10.535 34.6616 10.895 33.3 11.0584C34.69 10.225 36.665 8.23837 37.1666 6.66504Z" fill="black" fill-opacity="0.3"/>
</g>
</svg>
